# xmcd
#
# Track frame offsets:
#  150
#  24400
#  43125
#  60335
#
# Disc length: 1175 seconds
#
# Revision: 0
# Processed by: cddbd v1.4PL0 Copyright (c) Steve Scherf et al.
# Submitted via: AltoMP3_Maker 3.0
#
DISCID=29049504
DTITLE=Lighthouse Family - Lost In Space (Single)
DYEAR=1900
DGENRE=
TTITLE0=Lost In Space (Main Mix)
TTITLE1=High (Live At The Royal Albert Hall)
TTITLE2=Raincloud (Cuca's Radio Edit)
TTITLE3=High (Big Club Mix)
EXTD=
EXTT0=
EXTT1=
EXTT2=
EXTT3=
PLAYORDER=
